<svg xmlns="http://www.w3.org/2000/svg" fill="none" viewBox="0 0 12.331 9.733">
  <path fill="#FFF" fill-rule="evenodd" d="M4.3958 9.0329a.75.75 0 0 1-.5475-.24L.2033 4.9154a.7508.7508 0 1 1 1.095-1.0275l3.09 3.2925 6.3075-6.9a.7494.7494 0 0 1 .5254-.278.7503.7503 0 0 1 .7419.4366.7495.7495 0 0 1-.1573.8463l-6.855 7.5a.75.75 0 0 1-.5475.2476h-.0075Z"/>
  <path d="M11.0096.1045a.9025.9025 0 0 0-.2781.2286L4.5368 7.1097 1.5578 3.9352A.9008.9008 0 0 0 .2439 5.168l.0001.0001L3.8883 9.045l.0007.0007a.9.9 0 0 0 .6563.2873h.0099a.9.9 0 0 0 .6563-.2963l.0007-.0007 6.8519-7.4967a.899.899 0 0 0 .2663-.6572.8998.8998 0 0 0-.971-.8792.9006.9006 0 0 0-.3498.1017Z"/>
  <path d="M11.0831 1.0019a.5999.5999 0 0 1 .603.8248.601.601 0 0 1-.1353.2016l.1039.106-.1041-.1061-.0055.006-6.855 7.5-.0007.0007a.5998.5998 0 0 1-.4372.198h-.0064a.6.6 0 0 1-.4375-.192L3.8076 9.54.1626 5.6628a.6008.6008 0 0 1 .8763-.8222l3.09 3.2925.1108.1181.1093-.1195 6.3075-6.9.0002.0002.0061-.0075a.6005.6005 0 0 1 .4203-.2224Z"/>
</svg>
