<?xml version="1.0" encoding="utf-8"?>
<svg xmlns="http://www.w3.org/2000/svg" fill="none" viewBox="0 0 189.6 43.4">
  <g fill-rule="evenodd">
    <path fill="#7F8E76" d="M12.6 30.4c-2.4 0-4.3-.4-5.7-1.2v13.3H4.2c-2 0-4.2-1.2-4.2-4.9V9.9c0-.2.1-.3.3-.4C2.3 8.8 6.6 8 9 8h3.9c6.6 0 11.4 3.8 11.4 10.6a11 11 0 0 1-11.6 11.8Zm-.7-16.6H9.7c-.8 0-2 .3-2.8.4V24c1.2.3 3 .6 4.8.6 3.5 0 5.4-2 5.4-5.4 0-3.8-1.6-5.4-5.2-5.4ZM43.7 22c0 .4-.4.7-.7.5-1-.3-2-.5-3.5-.5-3 0-4.6 1.6-4.6 5.8v15.5H33c-3 0-4.9-1.5-4.9-4.3V26.6C28.1 21 31 16 38.1 16c4.1 0 5.6 2.4 5.6 4.4v1.7ZM88 11.9c1-1.1 2.2-1.9 3.2-1.9h1c.4 0 .6.2.6.5v5.6h8.8c.3 0 .5.2.5.5v2.3c0 1.4-1.2 3.2-4 3.2h-5.3v10.5c0 3.5 1.5 4.9 4.2 4.9 2.2 0 4-.3 5.1-1v2.4c0 2.8-2 4.5-5.9 4.5-6.8 0-10-3.7-10-10V17.2c0-2.6.4-3.6 1.9-5.3ZM110 13.8a4 4 0 0 1-3.9-3.9 4 4 0 0 1 4-3.9 4 4 0 0 1 3.9 3.9 4 4 0 0 1-4 4Zm4.8 29.2c-5.2 0-8-3-8-8.4V16.4h1.8c3 0 4.8 1.6 4.8 5V34c0 2.7 1.2 3.5 4.1 3.5h.8c.3 0 .5.2.5.5v1c0 2.9-1.2 4-4 4ZM134.7 42.6c-6.7 0-12-4.4-12-12.2V15h1.3c3.9 0 5.6 1.6 5.6 4.8v9.9c0 5 2.4 7 5.4 7 2.8 0 4.7-2 4.7-6.5V15.5c0-.3.3-.5.5-.5h.7c4 0 5.6 1.6 5.6 4.8v10.1c0 8.4-4 12.7-11.8 12.7ZM188 42.6c-3.7 0-5.1-1.7-5.1-4.9V27.3c0-4.4-2-6.3-5-6.3-2.7 0-4.5 1.9-4.5 5.6V42c0 .3-.2.5-.5.5h-1.3c-3 0-5-1.7-5-4.9V27.3c0-4.4-2-6.3-5-6.3-2.5 0-4.5 2-4.5 5.7v15.9h-1.8c-2.7 0-4.8-1.8-4.8-4.9V27.3c0-7.4 3.8-12.3 12-12.3a10 10 0 0 1 8.2 4.2 9.2 9.2 0 0 1 7.7-4.2c6.2 0 11.2 3.8 11.2 11.4v16.2H188ZM80.3 11.5a3 3 0 0 0-3-2.8h-4.1c0-4.8-3.7-8.7-8.3-8.7a8.5 8.5 0 0 0-8.3 8.7h-4.1a3 3 0 0 0-3 2.8l-1.6 27.9a3 3 0 0 0 3 3.2h28a3 3 0 0 0 3-3.2l-1.6-27.9ZM58.6 8.7C58.6 5 61.4 2 64.9 2s6.3 3 6.3 6.7H58.6Z"/>
    <path fill="#FFF" d="M64.7 32.3 60.6 34c1.7 3 5.3 3.9 9 2.5 2.3-1 5-2.4 6.5-4.5.2-.3.8-.3 1 .1l.3.9c1.2 3.2 0 6.5-7 9.2a13.3 13.3 0 0 1-17.1-8c-3.3-8.3-.2-15.6 7-18.3 5.3-2 11.6-.2 13.9 5.9 1.7 4.6-1.2 7.4-9.5 10.6Zm-3-11c-3 1-4.1 4.4-3.1 7.3l.2.9 2.8-1.1c6-2.3 7-3.5 6.4-5.2-1-2.5-3.3-3-6.2-2Z"/>
  </g>
</svg>