<svg xmlns="http://www.w3.org/2000/svg" fill="none" viewBox="0 0 49.644 62.373">
  <path fill="#FFF" fill-rule="evenodd" d="M47.1401 15.485c-.0918-1.5869-1.4054-2.8267-2.995-2.8267h-7.2723a.0232.0232 0 0 1-.0232-.0232C36.8496 5.6684 31.4572 0 24.826 0c-6.6342 0-12.0266 5.6684-12.0266 12.6351a.0232.0232 0 0 1-.0232.0232H5.4967c-1.5895 0-2.9032 1.2399-2.995 2.8268L.0051 58.6529c-.0996 1.7221 1.27 3.1732 2.995 3.1732H46.643c1.725 0 3.0946-1.4512 2.995-3.1733L47.1401 15.485Zm-31.4753-2.8267a.0232.0232 0 0 1-.0232-.0232c0-5.3982 4.1187-9.7915 9.1829-9.7915 5.0628 0 9.1815 4.3933 9.1815 9.7915a.0232.0232 0 0 1-.0232.0232h-18.318Z"/>
  <path fill="#7F8E76" fill-rule="evenodd" d="m24.5121 46.9225-5.9647 2.2917c2.4486 4.3482 7.7699 5.6495 13.126 3.593 3.4569-1.3264 7.5183-3.5969 9.6326-6.8839.2362-.3672.8189-.3349.9756.0727l.6835 1.7776c1.795 4.675-.0116 9.4923-10.0456 13.3452-9.0842 3.487-20.7259-.2861-25.0204-11.4732-4.6866-12.2023-.1699-22.7257 10.2693-26.7355 7.5927-2.9148 16.7277-.2004 20.0869 8.5453 2.5763 6.7112-1.676 10.8343-13.7432 15.4671ZM20.2713 30.815c-4.4063 1.6919-6.0779 6.4555-4.6677 10.7383l.4009 1.2447 4.0679-1.5598c8.6092-3.3069 10.2111-5.009 9.2236-7.5883-1.4073-3.6584-4.8202-4.4484-9.0247-2.8349Z"/>
</svg>